<svg width="200" height="60" viewBox="0 0 200 60" xmlns="http://www.w3.org/2000/svg">
  <defs>
    <linearGradient id="logoGradient" x1="0%" y1="0%" x2="100%" y2="0%">
      <stop offset="0%" style="stop-color:#ee7752" />
      <stop offset="33%" style="stop-color:#e73c7e" />
      <stop offset="66%" style="stop-color:#23a6d5" />
      <stop offset="100%" style="stop-color:#23d5ab" />
    </linearGradient>
  </defs>
  <path d="M10 45 L30 15 L50 45 M25 35 L35 35" fill="none" stroke="url(#logoGradient)" stroke-width="4" stroke-linecap="round" stroke-linejoin="round"/>
  <path d="M60 45 C60 15, 90 15, 90 30 C90 45, 60 45, 60 30" fill="none" stroke="url(#logoGradient)" stroke-width="4" stroke-linecap="round"/>
  <path d="M100 15 L100 45 M95 15 L105 15" fill="none" stroke="url(#logoGradient)" stroke-width="4" stroke-linecap="round"/>
  <path d="M115 15 L135 45 L155 15" fill="none" stroke="url(#logoGradient)" stroke-width="4" stroke-linecap="round" stroke-linejoin="round"/>
  <path d="M165 15 L165 45 M160 30 L180 30 M160 45 L180 45" fill="none" stroke="url(#logoGradient)" stroke-width="4" stroke-linecap="round"/>
  <path d="M185 15 L185 45 L195 35 L185 25" fill="none" stroke="url(#logoGradient)" stroke-width="4" stroke-linecap="round" stroke-linejoin="round"/>
</svg>